<?xml version="1.0" encoding="UTF-8" standalone="no"?>
<svg width="1242px" height="586px" viewBox="0 0 1242 586" version="1.1" xmlns="http://www.w3.org/2000/svg" xmlns:xlink="http://www.w3.org/1999/xlink" style="background: #FFFFFF;">
    <!-- Generator: Sketch 3.7.2 (28276) - http://www.bohemiancoding.com/sketch -->
    <title>Artboard 2</title>
    <desc>Created with Sketch.</desc>
    <defs></defs>
    <g id="Page-1" stroke="none" stroke-width="1" fill="none" fill-rule="evenodd">
        <g id="Artboard-2">
            <rect id="Rectangle-1" fill-opacity="0.48290308" fill="#6F73D2" x="0" y="0" width="1242" height="586"></rect>
            <g id="Group-2" transform="translate(574.000000, 42.000000)" stroke="#4A4A4A" fill-opacity="0.254528986" fill="#9012FE">
                <path d="M40.5157311,34.6975661 C41.2802053,53.3160568 26.9120779,61.7831739 26.9120779,61.7831739 C20.5466156,55.3848377 14.3181054,47.3354644 15.5723795,34.6975656 C16.9654742,20.6609295 29.0530479,10.7411185 30.0726886,11.9636439 C35.3703898,18.3154643 40.1829569,26.5929711 40.5157311,34.6975661 Z" id="Path-3" transform="translate(27.977636, 36.822513) scale(1, -1) rotate(53.000000) translate(-27.977636, -36.822513) "></path>
                <path d="M47.4502429,25.8783973 C48.2147171,44.496888 33.8465897,52.964005 33.8465897,52.964005 C27.4811274,46.5656689 21.2526172,38.5162956 22.5068913,25.8783967 C23.899986,11.8417607 35.9875597,1.92194963 37.0072004,3.14447505 C42.3049016,9.49629541 47.1174687,17.7738023 47.4502429,25.8783973 Z" id="Path-3" transform="translate(34.912148, 28.003344) scale(1, -1) rotate(28.000000) translate(-34.912148, -28.003344) "></path>
                <path d="M79.714214,34.6975661 C80.4786882,53.3160568 66.1105608,61.7831739 66.1105608,61.7831739 C59.7450985,55.3848377 53.5165883,47.3354644 54.7708624,34.6975656 C56.1639571,20.6609295 68.2515308,10.7411185 69.2711715,11.9636439 C74.5688727,18.3154643 79.3814398,26.5929711 79.714214,34.6975661 Z" id="Path-3" transform="translate(67.176119, 36.822513) rotate(53.000000) translate(-67.176119, -36.822513) "></path>
                <path d="M70.508174,25.8783973 C71.2726482,44.496888 56.9045208,52.964005 56.9045208,52.964005 C50.5390585,46.5656689 44.3105483,38.5162956 45.5648224,25.8783967 C46.9579171,11.8417607 59.0454908,1.92194963 60.0651315,3.14447505 C65.3628327,9.49629541 70.1753998,17.7738023 70.508174,25.8783973 Z" id="Path-3" transform="translate(57.970079, 28.003344) rotate(28.000000) translate(-57.970079, -28.003344) "></path>
                <path d="M60.3872067,22.835714 C61.1516809,41.4542047 46.7835534,49.9213217 46.7835534,49.9213217 C40.4180912,43.5229856 34.1895809,35.4736123 35.4438551,22.8357134 C36.8369498,8.7990774 48.9245235,-1.12073366 49.9441642,0.10179176 C55.2418653,6.45361213 60.0544325,14.731119 60.3872067,22.835714 Z" id="Path-3"></path>
            </g>
            <path d="M1.00268728,498.881758 C65.4180645,490.368418 460.312654,145.921417 818.532106,293.000002 C1176.75156,440.078586 1245.72668,275.625228 1245.72668,275.625228 L1243.29306,590.456643 L1.00268728,591.523057 L1.00268728,498.881758 Z" id="Path-28" fill-opacity="0.26805933" fill="#6F73D2"></path>
            <path d="M1097.09946,235.572606 C1512.09303,411.187515 1592,214.826763 1592,214.826763 L1589.18069,590.742064 L188.472814,625.66883 C188.472814,625.66883 682.105896,59.9576964 1097.09946,235.572606 Z" id="Path-28" fill-opacity="0.26805933" fill="#6F73D2"></path>
            <path d="M504.696798,120.023366 C919.690366,295.638276 1291.15186,0 1291.15186,0 L1313.81311,688.853821 C1313.81311,688.853821 127.570553,708.748386 -340.031068,673.9104 C-389.518518,670.223409 89.703229,-55.5915434 504.696798,120.023366 Z" id="Path-28" fill-opacity="0.26805933" fill="#6F73D2"></path>
            <text id="YOGAFIND" font-family="AmaticSC-Regular, Amatic SC" font-size="24" font-style="condensed" font-weight="normal" letter-spacing="0.5" fill="#4A4A4A">
                <tspan x="589.851562" y="128">YOGAFIND</tspan>
            </text>
        </g>
    </g>
</svg>