<?xml version="1.0" encoding="UTF-8" standalone="no"?>
<svg width="1242px" height="586px" viewBox="0 0 1242 586" version="1.1" xmlns="http://www.w3.org/2000/svg" xmlns:xlink="http://www.w3.org/1999/xlink" style="background: #FFFFFF;">
    <!-- Generator: Sketch 3.7.2 (28276) - http://www.bohemiancoding.com/sketch -->
    <title>Artboard 2</title>
    <desc>Created with Sketch.</desc>
    <defs></defs>
    <g id="Page-1" stroke="none" stroke-width="1" fill="none" fill-rule="evenodd">
        <g id="Artboard-2">
            <rect id="Rectangle-1" fill-opacity="0.48290308" fill="#6F73D2" x="0" y="0" width="1242" height="586"></rect>
            <g id="Group-2" transform="translate(949.000000, 42.000000)">
                <path d="M190.515731,34.6975661 C191.280205,53.3160568 176.912078,61.7831739 176.912078,61.7831739 C170.546616,55.3848377 164.318105,47.3354644 165.57238,34.6975656 C166.965474,20.6609295 179.053048,10.7411185 180.072689,11.9636439 C185.37039,18.3154643 190.182957,26.5929711 190.515731,34.6975661 Z" id="Path-3" fill-opacity="0.254528986" fill="#9012FE" transform="translate(177.977636, 36.822513) scale(1, -1) rotate(53.000000) translate(-177.977636, -36.822513) "></path>
                <path d="M197.450243,25.8783973 C198.214717,44.496888 183.84659,52.964005 183.84659,52.964005 C177.481127,46.5656689 171.252617,38.5162956 172.506891,25.8783967 C173.899986,11.8417607 185.98756,1.92194963 187.0072,3.14447505 C192.304902,9.49629541 197.117469,17.7738023 197.450243,25.8783973 Z" id="Path-3" fill-opacity="0.254528986" fill="#9012FE" transform="translate(184.912148, 28.003344) scale(1, -1) rotate(28.000000) translate(-184.912148, -28.003344) "></path>
                <path d="M229.714214,34.6975661 C230.478688,53.3160568 216.110561,61.7831739 216.110561,61.7831739 C209.745099,55.3848377 203.516588,47.3354644 204.770862,34.6975656 C206.163957,20.6609295 218.251531,10.7411185 219.271171,11.9636439 C224.568873,18.3154643 229.38144,26.5929711 229.714214,34.6975661 Z" id="Path-3" fill-opacity="0.254528986" fill="#9012FE" transform="translate(217.176119, 36.822513) rotate(53.000000) translate(-217.176119, -36.822513) "></path>
                <path d="M220.508174,25.8783973 C221.272648,44.496888 206.904521,52.964005 206.904521,52.964005 C200.539059,46.5656689 194.310548,38.5162956 195.564822,25.8783967 C196.957917,11.8417607 209.045491,1.92194963 210.065131,3.14447505 C215.362833,9.49629541 220.1754,17.7738023 220.508174,25.8783973 Z" id="Path-3" fill-opacity="0.254528986" fill="#9012FE" transform="translate(207.970079, 28.003344) rotate(28.000000) translate(-207.970079, -28.003344) "></path>
                <path d="M210.387207,22.835714 C211.151681,41.4542047 196.783553,49.9213217 196.783553,49.9213217 C190.418091,43.5229856 184.189581,35.4736123 185.443855,22.8357134 C186.83695,8.7990774 198.924523,-1.12073366 199.944164,0.10179176 C205.241865,6.45361213 210.054432,14.731119 210.387207,22.835714 Z" id="Path-3" fill-opacity="0.254528986" fill="#9012FE"></path>
                <path d="M163.820312,82.2929688 C163.593749,82.2929688 163.480469,82.0976582 163.480469,81.7070312 L163.597656,77.078125 C163.597656,77.078125 163.542969,76.429694 163.433594,75.1328125 C163.433594,74.8749987 163.384766,74.5000025 163.287109,74.0078125 C163.189453,73.5156225 163.140625,73.1757822 163.140625,72.9882812 C163.140625,72.8007803 163.119141,72.5937511 163.076172,72.3671875 C163.033203,72.1406239 162.972657,71.8671891 162.894531,71.546875 C162.816406,71.2265609 162.759766,70.9785165 162.724609,70.8027344 C162.689453,70.6269522 162.597657,70.1484414 162.449219,69.3671875 C162.128905,67.7343668 161.857423,66.5449256 161.634766,65.7988281 C161.412108,65.0527306 161.300781,64.578126 161.300781,64.375 C161.300781,64.0468734 161.460936,63.8828125 161.78125,63.8828125 L162.0625,64.0703125 C162.101563,64.7187532 162.310545,65.9804594 162.689453,67.8554688 C163.068361,69.7304781 163.36328,70.8124986 163.574219,71.1015625 C163.82422,70.3671838 163.996093,69.4472712 164.089844,68.3417969 C164.183594,67.2363226 164.261718,66.3984404 164.324219,65.828125 C164.464844,64.5781188 164.687498,63.953125 164.992188,63.953125 C165.234376,63.953125 165.355469,64.0390616 165.355469,64.2109375 C165.355469,64.3359381 165.324219,64.5097645 165.261719,64.7324219 C165.199218,64.9550792 165.154297,65.1523429 165.126953,65.3242188 C165.099609,65.4960946 165.009766,66.0078082 164.857422,66.859375 C164.705077,67.7109418 164.59375,68.3515604 164.523438,68.78125 C164.312499,70.0546939 164.207031,71.2226509 164.207031,72.2851562 L164.277344,73.0703125 L164.125,73.4335938 L164.125,73.6210938 L164.300781,76.5039062 C164.300781,78.6679796 164.285156,80.2851509 164.253906,81.3554688 L164.324219,81.4257812 L164.347656,81.5898438 C164.347656,81.7695321 164.302735,81.9316399 164.212891,82.0761719 C164.123046,82.2207038 163.992188,82.2929688 163.820312,82.2929688 L163.820312,82.2929688 Z M193.035156,76.5742188 C193.535159,76.5742188 193.785156,76.9101529 193.785156,77.5820312 C193.785156,78.0585961 193.865234,78.7714796 194.025391,79.7207031 C194.185548,80.6699266 194.265625,81.3828101 194.265625,81.859375 C194.265625,82.1093762 194.160157,82.234375 193.949219,82.234375 C193.566404,82.234375 193.375,82.0585955 193.375,81.7070312 C193.375,81.6992187 193.378906,81.6796877 193.386719,81.6484375 C193.394531,81.6171873 193.398438,81.5976563 193.398438,81.5898438 C193.242187,81.636719 193.039064,81.7499991 192.789062,81.9296875 C192.539061,82.1093759 192.351563,82.2187498 192.226562,82.2578125 C192.101562,82.2968752 191.912111,82.3242187 191.658203,82.3398438 C191.404296,82.3554688 191.218751,82.4023434 191.101562,82.4804688 L191.148438,82.4804688 C190.093745,82.2460926 189.30469,81.8789087 188.78125,81.3789062 C188.359373,80.9804668 188.062501,80.3046923 187.890625,79.3515625 C187.593749,77.7656171 187.445312,75.2226737 187.445312,71.7226562 C187.445312,70.3476494 187.484375,69.3710966 187.5625,68.7929688 C187.640625,68.2148409 187.724609,67.7050803 187.814453,67.2636719 C187.904297,66.8222634 188.013671,66.4394547 188.142578,66.1152344 C188.271485,65.791014 188.433593,65.4609392 188.628906,65.125 C188.82422,64.7890608 189.042968,64.5156261 189.285156,64.3046875 C189.832034,63.8281226 190.492184,63.5898438 191.265625,63.5898438 C191.74219,63.5898438 191.980469,63.7265611 191.980469,64 C191.980469,64.1953135 191.863282,64.2929688 191.628906,64.2929688 L190.949219,64.1640625 C189.72265,64.1640625 188.929689,65.285145 188.570312,67.5273438 C188.367186,68.7460998 188.265625,70.3398339 188.265625,72.3085938 C188.21875,73.5742251 188.195312,74.4511694 188.195312,74.9394531 C188.195312,75.4277368 188.199219,75.8066393 188.207031,76.0761719 C188.214844,76.3457045 188.232422,76.6835917 188.259766,77.0898438 C188.28711,77.4960958 188.333984,77.8613265 188.400391,78.1855469 C188.466797,78.5097672 188.546875,78.8593731 188.640625,79.234375 C188.734375,79.6093769 188.861327,79.9355455 189.021484,80.2128906 C189.181641,80.4902358 189.367186,80.7460926 189.578125,80.9804688 C190.015627,81.4648462 190.628902,81.7070312 191.417969,81.7070312 C192.207035,81.7070312 192.859372,81.3085977 193.375,80.5117188 C193.375,79.3164003 193.302735,78.5019553 193.158203,78.0683594 C193.013671,77.6347635 192.878907,77.4179688 192.753906,77.4179688 L191.792969,77.5117188 C191.425779,77.5117188 191.242188,77.3750014 191.242188,77.1015625 C191.242188,76.9531243 191.478513,76.8281255 191.951172,76.7265625 C192.42383,76.6249995 192.785155,76.5742188 193.035156,76.5742188 L193.035156,76.5742188 Z M202.558594,74.96875 L202.828125,81.2265625 L202.828125,81.484375 C202.828125,81.6718759 202.804688,81.7890623 202.757812,81.8359375 C202.632812,81.945313 202.496094,82 202.347656,82 C202.199218,82 202.078125,81.9609379 201.984375,81.8828125 C201.890625,81.8046871 201.84375,81.7070318 201.84375,81.5898438 C201.890625,81.4960933 201.914062,81.4023442 201.914062,81.3085938 L201.84375,80.828125 L201.84375,78.4492188 C201.84375,78.2382802 201.421879,78.0566414 200.578125,77.9042969 C199.734371,77.7519524 199.109377,77.6757812 198.703125,77.6757812 C198.546874,77.6757812 198.406251,77.966794 198.28125,78.5488281 C198.156249,79.1308623 198.035157,79.7695278 197.917969,80.4648438 C197.800781,81.1601597 197.683594,81.5937491 197.566406,81.765625 C197.191404,81.765625 196.945313,81.6679697 196.828125,81.4726562 C197.078126,81.1132795 197.318358,80.2382882 197.548828,78.8476562 C197.779298,77.4570243 197.964843,76.4472688 198.105469,75.8183594 C198.246094,75.18945 198.498045,73.8242293 198.861328,71.7226562 C199.224611,69.6210832 199.470702,68.2753936 199.599609,67.6855469 C199.728516,67.0957002 199.828125,66.6601577 199.898438,66.3789062 C199.96875,66.0976548 200.058593,65.7656269 200.167969,65.3828125 C200.425783,64.4609329 200.656249,64 200.859375,64 C201.109376,64 201.27539,64.0566401 201.357422,64.1699219 C201.439454,64.2832037 201.509765,64.548826 201.568359,64.9667969 C201.626953,65.3847677 201.685547,65.9160124 201.744141,66.5605469 C201.802735,67.2050813 201.855469,67.7968723 201.902344,68.3359375 C202.050782,70.0234459 202.142578,71.1328098 202.177734,71.6640625 C202.212891,72.1953152 202.285156,72.5781238 202.394531,72.8125 C202.363281,73.2968774 202.347656,73.7128889 202.347656,74.0605469 C202.347656,74.4082049 202.417968,74.7109362 202.558594,74.96875 L202.558594,74.96875 Z M198.621094,77.0078125 C199.292972,77.2343761 200.101558,77.3476562 201.046875,77.3476562 C201.242188,77.3476562 201.386718,77.3320314 201.480469,77.3007812 L201.597656,77.3476562 C201.746094,77.3476562 201.820312,77.2734382 201.820312,77.125 C201.820312,73.7812333 201.507816,70.1758006 200.882812,66.3085938 C200.875,66.2617185 200.857422,66.1757819 200.830078,66.0507812 C200.802734,65.9257806 200.789062,65.8281254 200.789062,65.7578125 C200.593749,66.3125028 200.488281,66.6640618 200.472656,66.8125 L200.542969,66.953125 C200.488281,67.0078128 200.398438,67.2832006 200.273438,67.7792969 C200.148437,68.2753931 199.97461,69.2988204 199.751953,70.8496094 C199.529296,72.4003984 199.369141,73.3964822 199.271484,73.8378906 C199.173828,74.2792991 199.070313,74.6796857 198.960938,75.0390625 C198.734374,75.8359415 198.621094,76.4453104 198.621094,76.8671875 L198.621094,77.0078125 Z M207.863281,64.6445312 L207.277344,64.6210938 C206.691403,64.6210938 206.398438,64.8046857 206.398438,65.171875 C206.398438,65.9531289 206.457031,67.1093673 206.574219,68.640625 C206.691407,70.1718827 206.75,71.3281211 206.75,72.109375 C206.937501,72.109375 207.207029,72.0625005 207.558594,71.96875 C207.910158,71.8749995 208.158202,71.828125 208.302734,71.828125 C208.447266,71.828125 208.55664,71.882812 208.630859,71.9921875 C208.705078,72.101563 208.742188,72.2070307 208.742188,72.3085938 C208.742188,72.5039072 208.576174,72.6249998 208.244141,72.671875 C207.912108,72.7187502 207.58008,72.7578123 207.248047,72.7890625 C206.916014,72.8203127 206.75,72.9140617 206.75,73.0703125 C206.75,73.976567 206.826171,75.3261629 206.978516,77.1191406 C207.13086,78.9121183 207.207031,80.257808 207.207031,81.15625 L207.136719,81.2851562 C207.183594,81.4023443 207.207031,81.5195307 207.207031,81.6367188 C207.207031,81.9101576 207.031252,82.046875 206.679688,82.046875 C206.406249,82.046875 206.269531,81.5039117 206.269531,80.4179688 L206.292969,79.6445312 C206.292969,78.8320272 206.242188,77.6230549 206.140625,76.0175781 C206.039062,74.4121013 205.988281,73.2070353 205.988281,72.4023438 C205.988281,67.7616955 205.835939,65.2500019 205.53125,64.8671875 L205.53125,64.7148438 C205.53125,64.1445284 206.324211,63.859375 207.910156,63.859375 C208.175783,63.859375 208.308594,64.0429669 208.308594,64.4101562 C208.308594,64.566407 208.160158,64.6445312 207.863281,64.6445312 L207.863281,64.6445312 Z M214.421875,81.90625 L213.660156,81.7890625 C213.480468,81.7890625 213.296876,81.8828116 213.109375,82.0703125 C212.749998,82.0703125 212.523438,82.0078131 212.429688,81.8828125 L212.371094,81.8828125 C211.636715,81.8828125 211.210938,81.7460951 211.09375,81.4726562 C211.09375,81.2929679 211.277342,81.203125 211.644531,81.203125 L212.171875,81.2265625 C212.492189,81.2265625 212.65625,80.9960961 212.664062,80.5351562 C212.671875,80.0742164 212.650391,79.5117221 212.599609,78.8476562 C212.548828,78.1835904 212.517578,77.5234408 212.505859,76.8671875 C212.494141,76.2109342 212.449219,74.9336032 212.371094,73.0351562 C212.292968,71.1367093 212.242188,69.7734416 212.21875,68.9453125 L212.242188,66.1328125 C212.242188,65.3593711 212.21875,64.894532 212.171875,64.7382812 L211.351562,64.9140625 C211.179687,64.9140625 211.09375,64.8027355 211.09375,64.5800781 C211.09375,64.3574208 211.445309,64.1738288 212.148438,64.0292969 C212.851566,63.8847649 213.328124,63.8125 213.578125,63.8125 C214.000002,63.8125 214.210938,63.9433581 214.210938,64.2050781 C214.210938,64.4667982 214.113282,64.5976562 213.917969,64.5976562 L213.34375,64.5742188 C213.070311,64.5742188 212.90625,64.7031237 212.851562,64.9609375 C212.796875,65.1718761 212.769531,65.7929636 212.769531,66.8242188 C212.769531,67.8554739 212.86914,69.8984222 213.068359,72.953125 C213.267579,76.0078278 213.367188,78.3046798 213.367188,79.84375 L213.34375,81.0859375 L214.210938,81.015625 C214.625002,81.015625 214.832031,81.2148418 214.832031,81.6132812 L214.421875,81.90625 Z M223.570312,80.6992188 L223.640625,81.5664062 C223.640625,82.0351586 223.437502,82.2695312 223.03125,82.2695312 C222.749999,82.2695312 222.558594,81.968753 222.457031,81.3671875 C222.402343,81.0859361 222.371094,80.9296877 222.363281,80.8984375 C220.800773,75.9687254 219.816408,72.3671989 219.410156,70.09375 C219.394531,70.0234371 219.382813,69.9140632 219.375,69.765625 C219.359375,69.4453109 219.285157,69.2187507 219.152344,69.0859375 L219.199219,68.96875 C219.097656,68.374997 219.021485,67.9628918 218.970703,67.7324219 C218.919922,67.501952 218.863282,67.2421889 218.800781,66.953125 C218.691406,66.44531 218.550782,65.9882833 218.378906,65.5820312 C218.332031,65.9101579 218.308594,66.1601554 218.308594,66.3320312 C218.308594,66.5039071 218.324219,66.6367183 218.355469,66.7304688 C218.246093,67.1054706 218.191406,67.6601526 218.191406,68.3945312 L218.191406,74.96875 C218.191406,75.7343788 218.246093,76.8749924 218.355469,78.390625 C218.464844,79.9062576 218.519531,81.0468712 218.519531,81.8125 L218.355469,82 L217.804688,82 L217.734375,81.8125 C217.765625,81.6874994 217.78125,81.3671901 217.78125,80.8515625 L217.511719,72.4960938 L217.511719,69.3554688 L217.6875,64.8203125 L217.664062,64.3164062 C217.664062,64.1132802 217.716796,63.978516 217.822266,63.9121094 C217.927735,63.8457028 218.064452,63.8125 218.232422,63.8125 C218.400391,63.8125 218.546874,63.8613276 218.671875,63.9589844 C218.796876,64.0566411 218.859375,64.2109364 218.859375,64.421875 C218.859375,64.6328136 218.894531,64.86328 218.964844,65.1132812 C219.035157,65.3632825 219.136718,65.6425766 219.269531,65.9511719 C219.402344,66.2597672 219.505859,66.5410144 219.580078,66.7949219 C219.654297,67.0488294 219.722656,67.4550753 219.785156,68.0136719 C219.847657,68.5722684 219.921875,69.0664041 220.007812,69.4960938 C220.09375,69.9257834 220.234374,70.5039026 220.429688,71.2304688 C220.625001,71.9570349 220.849608,72.7617143 221.103516,73.6445312 C221.357423,74.5273482 221.519531,75.1074205 221.589844,75.3847656 C221.660157,75.6621108 221.753906,76.0156229 221.871094,76.4453125 C222.121095,77.335942 222.253906,77.9648419 222.269531,78.3320312 C222.378907,78.4960946 222.46289,78.8124977 222.521484,79.28125 C222.580078,79.7500023 222.710936,80.0703116 222.914062,80.2421875 C223.015626,80.0156239 223.066406,79.6328152 223.066406,79.09375 L223.160156,70.7382812 L223.089844,67.0234375 L223.160156,66.109375 C223.160156,65.9374991 223.136719,65.8359377 223.089844,65.8046875 L223.160156,65.6054688 C223.160156,64.6210888 223.128907,63.9648454 223.066406,63.6367188 C223.128907,63.4179677 223.328123,63.3085938 223.664062,63.3085938 C223.921876,63.3085938 224.050781,63.5703099 224.050781,64.09375 C223.949218,64.296876 223.898438,64.5624984 223.898438,64.890625 L223.921875,65.6992188 C223.921875,66.0429705 223.890625,66.2851555 223.828125,66.4257812 L223.757812,74.0078125 C223.757812,74.1562507 223.773437,74.3710923 223.804688,74.6523438 L223.757812,74.7578125 L223.757812,77.78125 L223.804688,78.6835938 C223.804688,79.6367235 223.726563,80.292967 223.570312,80.6523438 L223.570312,80.6992188 Z M227.667969,78.4960938 L227.691406,77.5351562 C227.691406,76.5976516 227.636719,75.5078187 227.527344,74.265625 C227.417968,73.0234313 227.351563,72.2500015 227.328125,71.9453125 C227.257812,71.7968743 227.21875,70.7949312 227.210938,68.9394531 C227.203125,67.0839751 227.185547,66.0546885 227.158203,65.8515625 C227.130859,65.6484365 227.064454,65.4062514 226.958984,65.125 C226.853515,64.8437486 226.800781,64.6210946 226.800781,64.4570312 C226.800781,64.0742168 227.402338,63.8828125 228.605469,63.8828125 L228.722656,63.8828125 C229.332034,63.8828125 229.988278,64.2187466 230.691406,64.890625 C231.394535,65.5625034 231.853515,66.1679661 232.068359,66.7070312 C232.283204,67.2460964 232.425781,67.8925744 232.496094,68.6464844 C232.566407,69.4003944 232.615234,70.0898406 232.642578,70.7148438 C232.669922,71.3398469 232.722656,71.7343742 232.800781,71.8984375 L232.753906,72.5429688 L232.824219,72.6601562 L232.753906,72.859375 L232.824219,72.9765625 C232.730468,73.1250007 232.683594,73.3476548 232.683594,73.6445312 C232.683594,73.9414077 232.667969,74.2148425 232.636719,74.4648438 C232.605469,74.714845 232.574219,74.9101555 232.542969,75.0507812 C232.511719,75.191407 232.458985,75.4003892 232.384766,75.6777344 C232.310547,75.9550795 232.199219,76.3984345 232.050781,77.0078125 C231.613279,78.7265711 230.886724,79.9960896 229.871094,80.8164062 C228.855464,81.6367229 228.25586,82.046875 228.072266,82.046875 C227.888671,82.046875 227.701173,82.0058598 227.509766,81.9238281 C227.318358,81.8417965 227.210938,81.722657 227.1875,81.5664062 C227.414064,81.2773423 227.539062,80.957033 227.5625,80.6054688 L227.667969,78.4960938 Z M227.738281,65.0078125 L227.949219,68.9921875 C227.949219,70.0234427 228.009765,71.5527242 228.130859,73.5800781 C228.251954,75.607432 228.3125,76.9785121 228.3125,77.6933594 C228.3125,78.4082067 228.296875,79.1953082 228.265625,80.0546875 L228.3125,80.1484375 L228.3125,80.828125 L228.429688,80.828125 C229.031253,80.5078109 229.562498,80.0488311 230.023438,79.4511719 C230.484377,78.8535126 230.841796,78.2285189 231.095703,77.5761719 C231.349611,76.9238249 231.558593,76.2109414 231.722656,75.4375 C231.98047,74.1718687 232.109375,72.9453184 232.109375,71.7578125 C232.109375,67.0781016 230.820325,64.7382812 228.242188,64.7382812 C227.921873,64.7382812 227.753906,64.8281241 227.738281,65.0078125 L227.738281,65.0078125 Z" id="Y-----GAFIND" fill="#4A4A4A"></path>
            </g>
            <path d="M1.00268728,498.881758 C65.4180645,490.368418 460.312654,145.921417 818.532106,293.000002 C1176.75156,440.078586 1245.72668,275.625228 1245.72668,275.625228 L1243.29306,590.456643 L1.00268728,591.523057 L1.00268728,498.881758 Z" id="Path-28" fill-opacity="0.26805933" fill="#6F73D2"></path>
            <path d="M1097.09946,235.572606 C1512.09303,411.187515 1592,214.826763 1592,214.826763 L1589.18069,590.742064 L188.472814,625.66883 C188.472814,625.66883 682.105896,59.9576964 1097.09946,235.572606 Z" id="Path-28" fill-opacity="0.26805933" fill="#6F73D2"></path>
            <path d="M504.696798,120.023366 C919.690366,295.638276 1291.15186,0 1291.15186,0 L1313.81311,688.853821 C1313.81311,688.853821 127.570553,708.748386 -340.031068,673.9104 C-389.518518,670.223409 89.703229,-55.5915434 504.696798,120.023366 Z" id="Path-28" fill-opacity="0.26805933" fill="#6F73D2"></path>
            <g id="Group" transform="translate(1118.000000, 110.000000)">
                <ellipse id="Oval-1" fill="#FFFFFF" cx="4.9000999" cy="5.52168367" rx="0.749250749" ry="0.734693878"></ellipse>
                <ellipse id="Oval-1" fill="#FFFFFF" cx="6.78821179" cy="4.98214286" rx="0.374625375" ry="0.367346939"></ellipse>
                <ellipse id="Oval-1" stroke-opacity="0.718495245" stroke="#4A4A4A" stroke-width="1.5" cx="6.74325674" cy="6.6122449" rx="6.74325674" ry="6.6122449"></ellipse>
                <path d="M10.3924727,12.4358352 C12.0819748,14.0658348 12.5265616,16.2494734 14.3601516,17.8837691" id="Path-1" stroke-opacity="0.718495245" stroke="#4A4A4A" stroke-width="2"></path>
                <path d="M9.92757243,12.3061224 C11.6170745,13.9361221 12.0616613,16.1197607 13.8952513,17.7540564" id="Path-1" stroke-opacity="0.718495245" stroke="#4A4A4A" stroke-width="2"></path>
            </g>
        </g>
    </g>
</svg>